G04 DipTrace 4.2.0.1*
G04 Led_Race.gbs*
%MOIN*%
G04 #@! TF.FileFunction,Soldermask,Bot*
G04 #@! TF.Part,Single*
%AMOUTLINE43*
4,1,8,
0.030343,-0.021654,
0.041339,-0.010658,
0.041339,0.010658,
0.030343,0.021654,
-0.030343,0.021654,
-0.041339,0.010658,
-0.041339,-0.010658,
-0.030343,-0.021654,
0.030343,-0.021654,
0*%
%AMOUTLINE46*
4,1,8,
-0.030343,0.021654,
-0.041339,0.010658,
-0.041339,-0.010658,
-0.030343,-0.021654,
0.030343,-0.021654,
0.041339,-0.010658,
0.041339,0.010658,
0.030343,0.021654,
-0.030343,0.021654,
0*%
%ADD40C,0.11811*%
%ADD48O,0.082677X0.043307*%
%ADD50R,0.122047X0.062992*%
%ADD52O,0.07874X0.102362*%
%ADD54R,0.07874X0.102362*%
%ADD56O,0.082677X0.200787*%
%ADD58O,0.082677X0.181102*%
%ADD60C,0.051496*%
%ADD62R,0.051496X0.051496*%
%ADD64O,0.070866X0.169291*%
%ADD66O,0.181102X0.082677*%
%ADD68C,0.070866*%
%ADD70R,0.070866X0.070866*%
%ADD126OUTLINE43*%
%ADD129OUTLINE46*%
%FSLAX26Y26*%
G04*
G70*
G90*
G75*
G01*
G04 BotMask*
%LPD*%
D40*
X-503937Y803150D3*
X3204724Y-1448819D3*
X-503937D3*
X3204724Y803150D3*
D70*
X2200787Y-1400000D3*
D68*
X2100787D3*
X2000787D3*
X1900787D3*
X1800787D3*
X1700787D3*
X1600787D3*
X1500787D3*
X1400787D3*
X1300787D3*
X1200787D3*
X1100787D3*
X1000787D3*
X900787D3*
X800787D3*
X700787D3*
X600787D3*
X500787D3*
X400787D3*
X300787D3*
X200787D3*
X100787D3*
X787D3*
D70*
X1700000Y0D3*
D68*
X1600000D3*
X1500000D3*
X1400000D3*
X1300000D3*
X1200000D3*
X1100000D3*
X1000000D3*
X900000D3*
X800000D3*
X700000D3*
X600000D3*
X500000D3*
X400000D3*
X300000D3*
X200000D3*
X100000D3*
X0D3*
D66*
X2385827Y708661D3*
D64*
X2533465Y562992D3*
X2238189D3*
D66*
X1637795Y708661D3*
D64*
X1785433Y562992D3*
X1490157D3*
D62*
X-348028Y523283D3*
D60*
Y444543D3*
Y365803D3*
Y287063D3*
D66*
X889764Y708661D3*
D64*
X1037402Y562992D3*
X742126D3*
D66*
X141732Y708661D3*
D64*
X289370Y562992D3*
X-5906D3*
D58*
X3035433Y-169291D3*
D56*
X2799213D3*
D66*
X2917323Y15748D3*
D54*
X3015748Y771653D3*
D52*
X2915748Y771648D3*
X2815748Y771643D3*
D50*
X3122047Y-877948D3*
X2862205Y-877958D3*
D126*
X2645669Y-1330709D3*
D48*
Y-1280709D3*
Y-1230709D3*
D129*
X2791339Y-1228346D3*
D48*
Y-1278346D3*
Y-1328346D3*
D70*
X-570866Y-5513D3*
D68*
Y-182678D3*
X-314961D3*
Y-5513D3*
D70*
X-570866Y-464961D3*
D68*
Y-642126D3*
X-314961D3*
Y-464961D3*
D70*
X-570866Y-924409D3*
D68*
Y-1101575D3*
X-314961D3*
Y-924409D3*
M02*
