M48
INCH
T01C0.0126
T02C0.0276
T03C0.0354
T04C0.0394
T05C0.0433
T06C0.0512
T07C0.1181
%
T01
X+007717Y+002520
X+013504Y+001811
X+013937Y+002520
X+013504Y+000472
X+019764Y-000079
X+019803Y+001811
X+021417Y+002598
X+022559Y+001772
X+022559Y+000748
X+025866Y+000512
X+026496Y+000630
X+027126Y+000315
X+030945Y+002283
X+031772Y+002244
X+031772Y+003858
X+030984Y+003858
X+026535Y-006378
X+026535Y-006850
X+025157Y-006890
X+025157Y-006378
X-000866Y+002677
T02
X-003480Y+005233
X-003480Y+004445
X-003480Y+003658
X-003480Y+002871
X+026457Y-012307
X+026457Y-012807
X+026457Y-013307
X+027913Y-013283
X+027913Y-012783
X+027913Y-012283
T03
X+030925Y-008779G85X+031516Y-008779
X+028327Y-008780G85X+028917Y-008780
T04
X+025335Y+005138G85X+025335Y+006122
X+022382Y+005138G85X+022382Y+006122
X+017854Y+005138G85X+017854Y+006122
X+014902Y+005138G85X+014902Y+006122
X+010374Y+005138G85X+010374Y+006122
X+007421Y+005138G85X+007421Y+006122
X+002894Y+005138G85X+002894Y+006122
X-000059Y+005138G85X-000059Y+006122
X-003150Y-000055
X-003150Y-001827
X-005709Y-001827
X-005709Y-000055
X-005709Y-004650
X-005709Y-006421
X-003150Y-006421
X-003150Y-004650
X-003150Y-009244
X-003150Y-011016
X-005709Y-011016
X-005709Y-009244
X+027992Y-001102G85X+027992Y-002283
X+028681Y+000157G85X+029665Y+000157
X+030354Y-001201G85X+030354Y-002185
T05
X+022008Y-014000
X+021008Y-014000
X+020008Y-014000
X+019008Y-014000
X+018008Y-014000
X+017008Y-014000
X+016008Y-014000
X+015008Y-014000
X+014008Y-014000
X+013008Y-014000
X+012008Y-014000
X+011008Y-014000
X+010008Y-014000
X+009008Y-014000
X+008008Y-014000
X+007008Y-014000
X+006008Y-014000
X+005008Y-014000
X+004008Y-014000
X+003008Y-014000
X+002008Y-014000
X+001008Y-014000
X+000008Y-014000
X+000000Y-000000
X+001000Y-000000
X+002000Y-000000
X+003000Y-000000
X+004000Y-000000
X+005000Y-000000
X+006000Y-000000
X+007000Y-000000
X+008000Y-000000
X+009000Y-000000
X+010000Y-000000
X+011000Y-000000
X+012000Y-000000
X+013000Y-000000
X+014000Y-000000
X+015000Y-000000
X+016000Y-000000
X+017000Y-000000
T06
X+023366Y+007087G85X+024350Y+007087
X+028157Y+007716
X+029157Y+007716
X+030157Y+007717
X+015886Y+007087G85X+016870Y+007087
X+008406Y+007087G85X+009390Y+007087
X+000925Y+007087G85X+001909Y+007087
T07
X-005039Y+008031
X-005039Y-014488
X+032047Y-014488
X+032047Y+008031
T00
M30
